<?xml version="1.0" encoding="UTF-8" standalone="no"?><svg xmlns="http://www.w3.org/2000/svg" xmlns:xlink="http://www.w3.org/1999/xlink" clip-rule="evenodd" stroke-miterlimit="4.00" viewBox="0 0 1024 768"><desc>SVG generated by Keynote</desc><defs></defs><g transform="matrix(1.00, 0.00, -0.00, -1.00, 0.0, 768.0)"><path d="M 0.0 768.0 L 1024.0 768.0 L 1024.0 0.0 L 0.0 0.0 Z M 0.0 768.0 " fill="#FEFFFF"></path><text xml:space="preserve" font-family="CourierNewPSMT" font-size="46.0" fill="#021993" transform="matrix(1.00, 0.00, -0.00, -1.00, 103.0, 626.0)">t</text><text xml:space="preserve" font-family="CourierNewPSMT" font-size="46.0" fill="#021993" transform="matrix(1.00, 0.00, -0.00, -1.00, 130.6, 626.0)">a</text><text xml:space="preserve" font-family="CourierNewPSMT" font-size="46.0" fill="#021993" transform="matrix(1.00, 0.00, -0.00, -1.00, 158.2, 626.0)">b</text><text xml:space="preserve" font-family="CourierNewPSMT" font-size="46.0" fill="#021993" transform="matrix(1.00, 0.00, -0.00, -1.00, 185.8, 626.0)">l</text><text xml:space="preserve" font-family="CourierNewPSMT" font-size="46.0" fill="#021993" transform="matrix(1.00, 0.00, -0.00, -1.00, 213.4, 626.0)">e</text><text xml:space="preserve" font-family="CourierNewPSMT" font-size="46.0" fill="#021993" transform="matrix(1.00, 0.00, -0.00, -1.00, 241.0, 626.0)">p</text><text xml:space="preserve" font-family="CourierNewPSMT" font-size="46.0" fill="#021993" transform="matrix(1.00, 0.00, -0.00, -1.00, 268.7, 626.0)">l</text><text xml:space="preserve" font-family="CourierNewPSMT" font-size="46.0" fill="#021993" transform="matrix(1.00, 0.00, -0.00, -1.00, 296.3, 626.0)">o</text><text xml:space="preserve" font-family="CourierNewPSMT" font-size="46.0" fill="#021993" transform="matrix(1.00, 0.00, -0.00, -1.00, 323.9, 626.0)">t</text><text xml:space="preserve" font-family="CourierNewPSMT" font-size="46.0" fill="#000000" transform="matrix(1.00, 0.00, -0.00, -1.00, 351.4, 626.0)">(</text><text xml:space="preserve" font-family="CourierNewPSMT" font-size="46.0" fill="#000000" transform="matrix(1.00, 0.00, -0.00, -1.00, 379.0, 626.0)">m</text><text xml:space="preserve" font-family="CourierNewPSMT" font-size="46.0" fill="#000000" transform="matrix(1.00, 0.00, -0.00, -1.00, 406.7, 626.0)">i</text><text xml:space="preserve" font-family="CourierNewPSMT" font-size="46.0" fill="#000000" transform="matrix(1.00, 0.00, -0.00, -1.00, 434.3, 626.0)">n</text><text xml:space="preserve" font-family="CourierNewPSMT" font-size="46.0" fill="#000000" transform="matrix(1.00, 0.00, -0.00, -1.00, 461.9, 626.0)">i</text><text xml:space="preserve" font-family="CourierNewPSMT" font-size="46.0" fill="#000000" transform="matrix(1.00, 0.00, -0.00, -1.00, 489.5, 626.0)">_</text><text xml:space="preserve" font-family="CourierNewPSMT" font-size="46.0" fill="#000000" transform="matrix(1.00, 0.00, -0.00, -1.00, 517.1, 626.0)">d</text><text xml:space="preserve" font-family="CourierNewPSMT" font-size="46.0" fill="#000000" transform="matrix(1.00, 0.00, -0.00, -1.00, 544.7, 626.0)">,</text><text xml:space="preserve" font-family="CourierNewPSMT" font-size="46.0" fill="#000000" transform="matrix(1.00, 0.00, -0.00, -1.00, 572.3, 626.0)"> </text><text xml:space="preserve" font-family="CourierNewPSMT" font-size="46.0" fill="#000000" transform="matrix(1.00, 0.00, -0.00, -1.00, 599.9, 626.0)">s</text><text xml:space="preserve" font-family="CourierNewPSMT" font-size="46.0" fill="#000000" transform="matrix(1.00, 0.00, -0.00, -1.00, 627.5, 626.0)">o</text><text xml:space="preserve" font-family="CourierNewPSMT" font-size="46.0" fill="#000000" transform="matrix(1.00, 0.00, -0.00, -1.00, 655.1, 626.0)">r</text><text xml:space="preserve" font-family="CourierNewPSMT" font-size="46.0" fill="#000000" transform="matrix(1.00, 0.00, -0.00, -1.00, 682.7, 626.0)">t</text><text xml:space="preserve" font-family="CourierNewPSMT" font-size="46.0" fill="#000000" transform="matrix(1.00, 0.00, -0.00, -1.00, 710.4, 626.0)">C</text><text xml:space="preserve" font-family="CourierNewPSMT" font-size="46.0" fill="#000000" transform="matrix(1.00, 0.00, -0.00, -1.00, 738.0, 626.0)">o</text><text xml:space="preserve" font-family="CourierNewPSMT" font-size="46.0" fill="#000000" transform="matrix(1.00, 0.00, -0.00, -1.00, 765.6, 626.0)">l</text><text xml:space="preserve" font-family="CourierNewPSMT" font-size="46.0" fill="#000000" transform="matrix(1.00, 0.00, -0.00, -1.00, 793.2, 626.0)">=</text><text xml:space="preserve" font-family="CourierNewPSMT" font-size="46.0" fill="#000000" transform="matrix(1.00, 0.00, -0.00, -1.00, 820.8, 626.0)"> </text><text xml:space="preserve" font-family="CourierNewPSMT" font-size="46.0" fill="#000000" transform="matrix(1.00, 0.00, -0.00, -1.00, 848.4, 626.0)">c</text><text xml:space="preserve" font-family="CourierNewPSMT" font-size="46.0" fill="#000000" transform="matrix(1.00, 0.00, -0.00, -1.00, 876.0, 626.0)">u</text><text xml:space="preserve" font-family="CourierNewPSMT" font-size="46.0" fill="#000000" transform="matrix(1.00, 0.00, -0.00, -1.00, 903.6, 626.0)">t</text><text xml:space="preserve" font-family="CourierNewPSMT" font-size="46.0" fill="#000000" transform="matrix(1.00, 0.00, -0.00, -1.00, 931.2, 626.0)">)</text><text xml:space="preserve" font-family="CourierNewPSMT" font-size="46.0" fill="#000000" transform="matrix(1.00, 0.00, -0.00, -1.00, 958.8, 626.0)"> </text></g></svg>