<?xml version="1.0" encoding="UTF-8" standalone="no"?><svg xmlns="http://www.w3.org/2000/svg" xmlns:xlink="http://www.w3.org/1999/xlink" clip-rule="evenodd" stroke-miterlimit="4.00" viewBox="0 0 1024 768"><desc>SVG generated by Keynote</desc><defs></defs><g transform="matrix(1.00, 0.00, -0.00, -1.00, 0.0, 768.0)"><path d="M 0.0 768.0 L 1024.0 768.0 L 1024.0 0.0 L 0.0 0.0 Z M 0.0 768.0 " fill="#FEFFFF"></path><text xml:space="preserve" font-family="CourierNewPSMT" font-size="36.0" fill="#021993" transform="matrix(1.00, 0.00, -0.00, -1.00, 104.0, 635.0)">d</text><text xml:space="preserve" font-family="CourierNewPSMT" font-size="36.0" fill="#021993" transform="matrix(1.00, 0.00, -0.00, -1.00, 125.6, 635.0)">e</text><text xml:space="preserve" font-family="CourierNewPSMT" font-size="36.0" fill="#021993" transform="matrix(1.00, 0.00, -0.00, -1.00, 147.2, 635.0)">c</text><text xml:space="preserve" font-family="CourierNewPSMT" font-size="36.0" fill="#021993" transform="matrix(1.00, 0.00, -0.00, -1.00, 168.8, 635.0)">r</text><text xml:space="preserve" font-family="CourierNewPSMT" font-size="36.0" fill="#021993" transform="matrix(1.00, 0.00, -0.00, -1.00, 190.4, 635.0)">y</text><text xml:space="preserve" font-family="CourierNewPSMT" font-size="36.0" fill="#021993" transform="matrix(1.00, 0.00, -0.00, -1.00, 212.0, 635.0)">p</text><text xml:space="preserve" font-family="CourierNewPSMT" font-size="36.0" fill="#021993" transform="matrix(1.00, 0.00, -0.00, -1.00, 233.6, 635.0)">t</text><text xml:space="preserve" font-family="CourierNewPSMT" font-size="36.0" fill="#000000" transform="matrix(1.00, 0.00, -0.00, -1.00, 255.2, 635.0)">(</text><text xml:space="preserve" font-family="CourierNewPSMT" font-size="36.0" fill="#CC1C00" transform="matrix(1.00, 0.00, -0.00, -1.00, 276.8, 635.0)">"</text><text xml:space="preserve" font-family="CourierNewPSMT" font-size="36.0" fill="#CC1C00" transform="matrix(1.00, 0.00, -0.00, -1.00, 298.4, 635.0)">O</text><text xml:space="preserve" font-family="CourierNewPSMT" font-size="36.0" fill="#CC1C00" transform="matrix(1.00, 0.00, -0.00, -1.00, 320.0, 635.0)">l</text><text xml:space="preserve" font-family="CourierNewPSMT" font-size="36.0" fill="#CC1C00" transform="matrix(1.00, 0.00, -0.00, -1.00, 341.6, 635.0)">C</text><text xml:space="preserve" font-family="CourierNewPSMT" font-size="36.0" fill="#CC1C00" transform="matrix(1.00, 0.00, -0.00, -1.00, 363.3, 635.0)">E</text><text xml:space="preserve" font-family="CourierNewPSMT" font-size="36.0" fill="#CC1C00" transform="matrix(1.00, 0.00, -0.00, -1.00, 384.9, 635.0)"> </text><text xml:space="preserve" font-family="CourierNewPSMT" font-size="36.0" fill="#CC1C00" transform="matrix(1.00, 0.00, -0.00, -1.00, 406.5, 635.0)">b</text><text xml:space="preserve" font-family="CourierNewPSMT" font-size="36.0" fill="#CC1C00" transform="matrix(1.00, 0.00, -0.00, -1.00, 428.1, 635.0)">Q</text><text xml:space="preserve" font-family="CourierNewPSMT" font-size="36.0" fill="#CC1C00" transform="matrix(1.00, 0.00, -0.00, -1.00, 449.7, 635.0)">T</text><text xml:space="preserve" font-family="CourierNewPSMT" font-size="36.0" fill="#CC1C00" transform="matrix(1.00, 0.00, -0.00, -1.00, 471.3, 635.0)">Q</text><text xml:space="preserve" font-family="CourierNewPSMT" font-size="36.0" fill="#CC1C00" transform="matrix(1.00, 0.00, -0.00, -1.00, 492.9, 635.0)"> </text><text xml:space="preserve" font-family="CourierNewPSMT" font-size="36.0" fill="#CC1C00" transform="matrix(1.00, 0.00, -0.00, -1.00, 514.5, 635.0)">A</text><text xml:space="preserve" font-family="CourierNewPSMT" font-size="36.0" fill="#CC1C00" transform="matrix(1.00, 0.00, -0.00, -1.00, 536.1, 635.0)">w</text><text xml:space="preserve" font-family="CourierNewPSMT" font-size="36.0" fill="#CC1C00" transform="matrix(1.00, 0.00, -0.00, -1.00, 557.7, 635.0)"> </text><text xml:space="preserve" font-family="CourierNewPSMT" font-size="36.0" fill="#CC1C00" transform="matrix(1.00, 0.00, -0.00, -1.00, 579.3, 635.0)">G</text><text xml:space="preserve" font-family="CourierNewPSMT" font-size="36.0" fill="#CC1C00" transform="matrix(1.00, 0.00, -0.00, -1.00, 600.9, 635.0)">W</text><text xml:space="preserve" font-family="CourierNewPSMT" font-size="36.0" fill="#CC1C00" transform="matrix(1.00, 0.00, -0.00, -1.00, 622.5, 635.0)">P</text><text xml:space="preserve" font-family="CourierNewPSMT" font-size="36.0" fill="#CC1C00" transform="matrix(1.00, 0.00, -0.00, -1.00, 644.1, 635.0)">A</text><text xml:space="preserve" font-family="CourierNewPSMT" font-size="36.0" fill="#CC1C00" transform="matrix(1.00, 0.00, -0.00, -1.00, 665.8, 635.0)">T</text><text xml:space="preserve" font-family="CourierNewPSMT" font-size="36.0" fill="#CC1C00" transform="matrix(1.00, 0.00, -0.00, -1.00, 687.4, 635.0)">A</text><text xml:space="preserve" font-family="CourierNewPSMT" font-size="36.0" fill="#CC1C00" transform="matrix(1.00, 0.00, -0.00, -1.00, 709.0, 635.0)">W</text><text xml:space="preserve" font-family="CourierNewPSMT" font-size="36.0" fill="#CC1C00" transform="matrix(1.00, 0.00, -0.00, -1.00, 730.6, 635.0)">w</text><text xml:space="preserve" font-family="CourierNewPSMT" font-size="36.0" fill="#CC1C00" transform="matrix(1.00, 0.00, -0.00, -1.00, 752.2, 635.0)"> </text><text xml:space="preserve" font-family="CourierNewPSMT" font-size="36.0" fill="#CC1C00" transform="matrix(1.00, 0.00, -0.00, -1.00, 773.8, 635.0)">q</text><text xml:space="preserve" font-family="CourierNewPSMT" font-size="36.0" fill="#CC1C00" transform="matrix(1.00, 0.00, -0.00, -1.00, 795.4, 635.0)">d</text><text xml:space="preserve" font-family="CourierNewPSMT" font-size="36.0" fill="#CC1C00" transform="matrix(1.00, 0.00, -0.00, -1.00, 817.0, 635.0)">"</text><text xml:space="preserve" font-family="CourierNewPSMT" font-size="36.0" fill="#000000" transform="matrix(1.00, 0.00, -0.00, -1.00, 838.5, 635.0)">)</text><text xml:space="preserve" font-family="CourierNewPSMT" font-size="36.0" fill="#000000" transform="matrix(1.00, 0.00, -0.00, -1.00, 860.1, 635.0)"> </text><text xml:space="preserve" font-family="CourierNewPSMT" font-size="36.0" fill="#000000" transform="matrix(1.00, 0.00, -0.00, -1.00, 104.0, 594.0)">#</text><text xml:space="preserve" font-family="CourierNewPSMT" font-size="36.0" fill="#000000" transform="matrix(1.00, 0.00, -0.00, -1.00, 125.6, 594.0)">#</text><text xml:space="preserve" font-family="CourierNewPSMT" font-size="36.0" fill="#000000" transform="matrix(1.00, 0.00, -0.00, -1.00, 147.2, 594.0)"> </text><text xml:space="preserve" font-family="CourierNewPSMT" font-size="36.0" fill="#000000" transform="matrix(1.00, 0.00, -0.00, -1.00, 168.8, 594.0)">[</text><text xml:space="preserve" font-family="CourierNewPSMT" font-size="36.0" fill="#BE8F00" transform="matrix(1.00, 0.00, -0.00, -1.00, 190.4, 594.0)">1</text><text xml:space="preserve" font-family="CourierNewPSMT" font-size="36.0" fill="#000000" transform="matrix(1.00, 0.00, -0.00, -1.00, 212.0, 594.0)">]</text><text xml:space="preserve" font-family="CourierNewPSMT" font-size="36.0" fill="#000000" transform="matrix(1.00, 0.00, -0.00, -1.00, 233.6, 594.0)"> </text><text xml:space="preserve" font-family="CourierNewPSMT" font-size="36.0" fill="#CC1C00" transform="matrix(1.00, 0.00, -0.00, -1.00, 255.2, 594.0)">"</text><text xml:space="preserve" font-family="CourierNewPSMT" font-size="36.0" fill="#CC1C00" transform="matrix(1.00, 0.00, -0.00, -1.00, 276.8, 594.0)">T</text><text xml:space="preserve" font-family="CourierNewPSMT" font-size="36.0" fill="#CC1C00" transform="matrix(1.00, 0.00, -0.00, -1.00, 298.4, 594.0)">r</text><text xml:space="preserve" font-family="CourierNewPSMT" font-size="36.0" fill="#CC1C00" transform="matrix(1.00, 0.00, -0.00, -1.00, 320.0, 594.0)">u</text><text xml:space="preserve" font-family="CourierNewPSMT" font-size="36.0" fill="#CC1C00" transform="matrix(1.00, 0.00, -0.00, -1.00, 341.7, 594.0)">e</text><text xml:space="preserve" font-family="CourierNewPSMT" font-size="36.0" fill="#CC1C00" transform="matrix(1.00, 0.00, -0.00, -1.00, 363.3, 594.0)"> </text><text xml:space="preserve" font-family="CourierNewPSMT" font-size="36.0" fill="#CC1C00" transform="matrix(1.00, 0.00, -0.00, -1.00, 384.9, 594.0)">d</text><text xml:space="preserve" font-family="CourierNewPSMT" font-size="36.0" fill="#CC1C00" transform="matrix(1.00, 0.00, -0.00, -1.00, 406.5, 594.0)">a</text><text xml:space="preserve" font-family="CourierNewPSMT" font-size="36.0" fill="#CC1C00" transform="matrix(1.00, 0.00, -0.00, -1.00, 428.1, 594.0)">t</text><text xml:space="preserve" font-family="CourierNewPSMT" font-size="36.0" fill="#CC1C00" transform="matrix(1.00, 0.00, -0.00, -1.00, 449.7, 594.0)">a</text><text xml:space="preserve" font-family="CourierNewPSMT" font-size="36.0" fill="#CC1C00" transform="matrix(1.00, 0.00, -0.00, -1.00, 471.3, 594.0)"> </text><text xml:space="preserve" font-family="CourierNewPSMT" font-size="36.0" fill="#CC1C00" transform="matrix(1.00, 0.00, -0.00, -1.00, 492.9, 594.0)">i</text><text xml:space="preserve" font-family="CourierNewPSMT" font-size="36.0" fill="#CC1C00" transform="matrix(1.00, 0.00, -0.00, -1.00, 514.5, 594.0)">n</text><text xml:space="preserve" font-family="CourierNewPSMT" font-size="36.0" fill="#CC1C00" transform="matrix(1.00, 0.00, -0.00, -1.00, 536.1, 594.0)"> </text><text xml:space="preserve" font-family="CourierNewPSMT" font-size="36.0" fill="#CC1C00" transform="matrix(1.00, 0.00, -0.00, -1.00, 557.7, 594.0)">p</text><text xml:space="preserve" font-family="CourierNewPSMT" font-size="36.0" fill="#CC1C00" transform="matrix(1.00, 0.00, -0.00, -1.00, 579.3, 594.0)">o</text><text xml:space="preserve" font-family="CourierNewPSMT" font-size="36.0" fill="#CC1C00" transform="matrix(1.00, 0.00, -0.00, -1.00, 600.9, 594.0)">s</text><text xml:space="preserve" font-family="CourierNewPSMT" font-size="36.0" fill="#CC1C00" transform="matrix(1.00, 0.00, -0.00, -1.00, 622.5, 594.0)">i</text><text xml:space="preserve" font-family="CourierNewPSMT" font-size="36.0" fill="#CC1C00" transform="matrix(1.00, 0.00, -0.00, -1.00, 644.2, 594.0)">t</text><text xml:space="preserve" font-family="CourierNewPSMT" font-size="36.0" fill="#CC1C00" transform="matrix(1.00, 0.00, -0.00, -1.00, 665.8, 594.0)">i</text><text xml:space="preserve" font-family="CourierNewPSMT" font-size="36.0" fill="#CC1C00" transform="matrix(1.00, 0.00, -0.00, -1.00, 687.4, 594.0)">o</text><text xml:space="preserve" font-family="CourierNewPSMT" font-size="36.0" fill="#CC1C00" transform="matrix(1.00, 0.00, -0.00, -1.00, 709.0, 594.0)">n</text><text xml:space="preserve" font-family="CourierNewPSMT" font-size="36.0" fill="#CC1C00" transform="matrix(1.00, 0.00, -0.00, -1.00, 730.6, 594.0)"> </text><text xml:space="preserve" font-family="CourierNewPSMT" font-size="36.0" fill="#CC1C00" transform="matrix(1.00, 0.00, -0.00, -1.00, 752.2, 594.0)">1</text><text xml:space="preserve" font-family="CourierNewPSMT" font-size="36.0" fill="#CC1C00" transform="matrix(1.00, 0.00, -0.00, -1.00, 773.8, 594.0)">7</text><text xml:space="preserve" font-family="CourierNewPSMT" font-size="36.0" fill="#CC1C00" transform="matrix(1.00, 0.00, -0.00, -1.00, 795.4, 594.0)">"</text><text xml:space="preserve" font-family="CourierNewPSMT" font-size="36.0" fill="#000000" transform="matrix(1.00, 0.00, -0.00, -1.00, 816.9, 594.0)"> </text></g></svg>