<?xml version="1.0" encoding="UTF-8" standalone="no"?><svg xmlns="http://www.w3.org/2000/svg" xmlns:xlink="http://www.w3.org/1999/xlink" clip-rule="evenodd" stroke-miterlimit="4.00" viewBox="0 0 1024 768"><desc>SVG generated by Keynote</desc><defs></defs><g transform="matrix(1.00, 0.00, -0.00, -1.00, 0.0, 768.0)"><path d="M 0.0 768.0 L 1024.0 768.0 L 1024.0 0.0 L 0.0 0.0 Z M 0.0 768.0 " fill="#FEFFFF"></path><text xml:space="preserve" font-family="Helvetica-Light" font-size="76.8" fill="#000000" transform="matrix(1.00, 0.00, -0.00, -1.00, 104.0, 487.0)">U</text><text xml:space="preserve" font-family="Helvetica-Light" font-size="76.8" fill="#000000" transform="matrix(1.00, 0.00, -0.00, -1.00, 159.4, 487.0)">s</text><text xml:space="preserve" font-family="Helvetica-Light" font-size="76.8" fill="#000000" transform="matrix(1.00, 0.00, -0.00, -1.00, 197.8, 487.0)">i</text><text xml:space="preserve" font-family="Helvetica-Light" font-size="76.8" fill="#000000" transform="matrix(1.00, 0.00, -0.00, -1.00, 214.9, 487.0)">n</text><text xml:space="preserve" font-family="Helvetica-Light" font-size="76.8" fill="#000000" transform="matrix(1.00, 0.00, -0.00, -1.00, 257.6, 487.0)">g</text><text xml:space="preserve" font-family="Helvetica-Light" font-size="76.8" fill="#000000" transform="matrix(1.00, 0.00, -0.00, -1.00, 304.5, 487.0)"> </text><text xml:space="preserve" font-family="Helvetica-Light" font-size="76.8" fill="#000000" transform="matrix(1.00, 0.00, -0.00, -1.00, 325.9, 487.0)">d</text><text xml:space="preserve" font-family="Helvetica-Light" font-size="76.8" fill="#000000" transform="matrix(1.00, 0.00, -0.00, -1.00, 372.8, 487.0)">a</text><text xml:space="preserve" font-family="Helvetica-Light" font-size="76.8" fill="#000000" transform="matrix(1.00, 0.00, -0.00, -1.00, 415.5, 487.0)">t</text><text xml:space="preserve" font-family="Helvetica-Light" font-size="76.8" fill="#000000" transform="matrix(1.00, 0.00, -0.00, -1.00, 436.9, 487.0)">a</text><text xml:space="preserve" font-family="Helvetica-Light" font-size="76.8" fill="#000000" transform="matrix(1.00, 0.00, -0.00, -1.00, 479.6, 487.0)"> </text><text xml:space="preserve" font-family="Helvetica-Light" font-size="76.8" fill="#000000" transform="matrix(1.00, 0.00, -0.00, -1.00, 500.9, 487.0)">v</text><text xml:space="preserve" font-family="Helvetica-Light" font-size="76.8" fill="#000000" transform="matrix(1.00, 0.00, -0.00, -1.00, 539.3, 487.0)">i</text><text xml:space="preserve" font-family="Helvetica-Light" font-size="76.8" fill="#000000" transform="matrix(1.00, 0.00, -0.00, -1.00, 556.4, 487.0)">s</text><text xml:space="preserve" font-family="Helvetica-Light" font-size="76.8" fill="#000000" transform="matrix(1.00, 0.00, -0.00, -1.00, 594.8, 487.0)">u</text><text xml:space="preserve" font-family="Helvetica-Light" font-size="76.8" fill="#000000" transform="matrix(1.00, 0.00, -0.00, -1.00, 637.5, 487.0)">a</text><text xml:space="preserve" font-family="Helvetica-Light" font-size="76.8" fill="#000000" transform="matrix(1.00, 0.00, -0.00, -1.00, 680.2, 487.0)">l</text><text xml:space="preserve" font-family="Helvetica-Light" font-size="76.8" fill="#000000" transform="matrix(1.00, 0.00, -0.00, -1.00, 697.2, 487.0)">i</text><text xml:space="preserve" font-family="Helvetica-Light" font-size="76.8" fill="#000000" transform="matrix(1.00, 0.00, -0.00, -1.00, 714.3, 487.0)">z</text><text xml:space="preserve" font-family="Helvetica-Light" font-size="76.8" fill="#000000" transform="matrix(1.00, 0.00, -0.00, -1.00, 752.7, 487.0)">a</text><text xml:space="preserve" font-family="Helvetica-Light" font-size="76.8" fill="#000000" transform="matrix(1.00, 0.00, -0.00, -1.00, 795.4, 487.0)">t</text><text xml:space="preserve" font-family="Helvetica-Light" font-size="76.8" fill="#000000" transform="matrix(1.00, 0.00, -0.00, -1.00, 816.7, 487.0)">i</text><text xml:space="preserve" font-family="Helvetica-Light" font-size="76.8" fill="#000000" transform="matrix(1.00, 0.00, -0.00, -1.00, 833.8, 487.0)">o</text><text xml:space="preserve" font-family="Helvetica-Light" font-size="76.8" fill="#000000" transform="matrix(1.00, 0.00, -0.00, -1.00, 876.5, 487.0)">n</text><text xml:space="preserve" font-family="Helvetica-Light" font-size="76.8" fill="#000000" transform="matrix(1.00, 0.00, -0.00, -1.00, 919.2, 487.0)"> </text><text xml:space="preserve" font-family="Helvetica-Light" font-size="76.8" fill="#000000" transform="matrix(1.00, 0.00, -0.00, -1.00, 213.0, 395.0)">t</text><text xml:space="preserve" font-family="Helvetica-Light" font-size="76.8" fill="#000000" transform="matrix(1.00, 0.00, -0.00, -1.00, 234.4, 395.0)">o</text><text xml:space="preserve" font-family="Helvetica-Light" font-size="76.8" fill="#000000" transform="matrix(1.00, 0.00, -0.00, -1.00, 277.1, 395.0)"> </text><text xml:space="preserve" font-family="Helvetica-Light" font-size="76.8" fill="#000000" transform="matrix(1.00, 0.00, -0.00, -1.00, 298.4, 395.0)">ï¬</text><text xml:space="preserve" font-family="Helvetica-Light" font-size="76.8" fill="#000000" transform="matrix(1.00, 0.00, -0.00, -1.00, 336.8, 395.0)">n</text><text xml:space="preserve" font-family="Helvetica-Light" font-size="76.8" fill="#000000" transform="matrix(1.00, 0.00, -0.00, -1.00, 379.5, 395.0)">d</text><text xml:space="preserve" font-family="Helvetica-Light" font-size="76.8" fill="#000000" transform="matrix(1.00, 0.00, -0.00, -1.00, 426.4, 395.0)"> </text><text xml:space="preserve" font-family="Helvetica-Light" font-size="76.8" fill="#000000" transform="matrix(1.00, 0.00, -0.00, -1.00, 447.8, 395.0)">p</text><text xml:space="preserve" font-family="Helvetica-Light" font-size="76.8" fill="#000000" transform="matrix(1.00, 0.00, -0.00, -1.00, 494.7, 395.0)">a</text><text xml:space="preserve" font-family="Helvetica-Light" font-size="76.8" fill="#000000" transform="matrix(1.00, 0.00, -0.00, -1.00, 537.4, 395.0)">t</text><text xml:space="preserve" font-family="Helvetica-Light" font-size="76.8" fill="#000000" transform="matrix(1.00, 0.00, -0.00, -1.00, 558.8, 395.0)">t</text><text xml:space="preserve" font-family="Helvetica-Light" font-size="76.8" fill="#000000" transform="matrix(1.00, 0.00, -0.00, -1.00, 580.1, 395.0)">e</text><text xml:space="preserve" font-family="Helvetica-Light" font-size="76.8" fill="#000000" transform="matrix(1.00, 0.00, -0.00, -1.00, 622.8, 395.0)">r</text><text xml:space="preserve" font-family="Helvetica-Light" font-size="76.8" fill="#000000" transform="matrix(1.00, 0.00, -0.00, -1.00, 649.8, 395.0)">n</text><text xml:space="preserve" font-family="Helvetica-Light" font-size="76.8" fill="#000000" transform="matrix(1.00, 0.00, -0.00, -1.00, 692.5, 395.0)">s</text><text xml:space="preserve" font-family="Helvetica-Light" font-size="76.8" fill="#000000" transform="matrix(1.00, 0.00, -0.00, -1.00, 730.9, 395.0)"> </text><text xml:space="preserve" font-family="Helvetica-Light" font-size="76.8" fill="#000000" transform="matrix(1.00, 0.00, -0.00, -1.00, 752.2, 395.0)">i</text><text xml:space="preserve" font-family="Helvetica-Light" font-size="76.8" fill="#000000" transform="matrix(1.00, 0.00, -0.00, -1.00, 769.3, 395.0)">n</text><text xml:space="preserve" font-family="Helvetica-Light" font-size="76.8" fill="#000000" transform="matrix(1.00, 0.00, -0.00, -1.00, 812.0, 395.0)"> </text><text xml:space="preserve" font-family="Helvetica-Light" font-size="76.8" fill="#000000" transform="matrix(1.00, 0.00, -0.00, -1.00, 136.0, 303.0)">m</text><text xml:space="preserve" font-family="Helvetica-Light" font-size="76.8" fill="#000000" transform="matrix(1.00, 0.00, -0.00, -1.00, 200.0, 303.0)">u</text><text xml:space="preserve" font-family="Helvetica-Light" font-size="76.8" fill="#000000" transform="matrix(1.00, 0.00, -0.00, -1.00, 242.7, 303.0)">l</text><text xml:space="preserve" font-family="Helvetica-Light" font-size="76.8" fill="#000000" transform="matrix(1.00, 0.00, -0.00, -1.00, 259.7, 303.0)">t</text><text xml:space="preserve" font-family="Helvetica-Light" font-size="76.8" fill="#000000" transform="matrix(1.00, 0.00, -0.00, -1.00, 281.1, 303.0)">i</text><text xml:space="preserve" font-family="Helvetica-Light" font-size="76.8" fill="#000000" transform="matrix(1.00, 0.00, -0.00, -1.00, 298.1, 303.0)">d</text><text xml:space="preserve" font-family="Helvetica-Light" font-size="76.8" fill="#000000" transform="matrix(1.00, 0.00, -0.00, -1.00, 345.0, 303.0)">i</text><text xml:space="preserve" font-family="Helvetica-Light" font-size="76.8" fill="#000000" transform="matrix(1.00, 0.00, -0.00, -1.00, 362.1, 303.0)">m</text><text xml:space="preserve" font-family="Helvetica-Light" font-size="76.8" fill="#000000" transform="matrix(1.00, 0.00, -0.00, -1.00, 426.1, 303.0)">e</text><text xml:space="preserve" font-family="Helvetica-Light" font-size="76.8" fill="#000000" transform="matrix(1.00, 0.00, -0.00, -1.00, 468.8, 303.0)">n</text><text xml:space="preserve" font-family="Helvetica-Light" font-size="76.8" fill="#000000" transform="matrix(1.00, 0.00, -0.00, -1.00, 511.5, 303.0)">s</text><text xml:space="preserve" font-family="Helvetica-Light" font-size="76.8" fill="#000000" transform="matrix(1.00, 0.00, -0.00, -1.00, 549.9, 303.0)">i</text><text xml:space="preserve" font-family="Helvetica-Light" font-size="76.8" fill="#000000" transform="matrix(1.00, 0.00, -0.00, -1.00, 566.9, 303.0)">o</text><text xml:space="preserve" font-family="Helvetica-Light" font-size="76.8" fill="#000000" transform="matrix(1.00, 0.00, -0.00, -1.00, 609.6, 303.0)">n</text><text xml:space="preserve" font-family="Helvetica-Light" font-size="76.8" fill="#000000" transform="matrix(1.00, 0.00, -0.00, -1.00, 652.3, 303.0)">a</text><text xml:space="preserve" font-family="Helvetica-Light" font-size="76.8" fill="#000000" transform="matrix(1.00, 0.00, -0.00, -1.00, 695.0, 303.0)">l</text><text xml:space="preserve" font-family="Helvetica-Light" font-size="76.8" fill="#000000" transform="matrix(1.00, 0.00, -0.00, -1.00, 712.1, 303.0)"> </text><text xml:space="preserve" font-family="Helvetica-Light" font-size="76.8" fill="#000000" transform="matrix(1.00, 0.00, -0.00, -1.00, 733.4, 303.0)">d</text><text xml:space="preserve" font-family="Helvetica-Light" font-size="76.8" fill="#000000" transform="matrix(1.00, 0.00, -0.00, -1.00, 780.4, 303.0)">a</text><text xml:space="preserve" font-family="Helvetica-Light" font-size="76.8" fill="#000000" transform="matrix(1.00, 0.00, -0.00, -1.00, 823.1, 303.0)">t</text><text xml:space="preserve" font-family="Helvetica-Light" font-size="76.8" fill="#000000" transform="matrix(1.00, 0.00, -0.00, -1.00, 844.4, 303.0)">a</text><text xml:space="preserve" font-family="Helvetica-Light" font-size="32.0" fill="#000000" transform="matrix(1.00, 0.00, -0.00, -1.00, 380.0, 133.0)">A</text><text xml:space="preserve" font-family="Helvetica-Light" font-size="32.0" fill="#000000" transform="matrix(1.00, 0.00, -0.00, -1.00, 401.3, 133.0)">m</text><text xml:space="preserve" font-family="Helvetica-Light" font-size="32.0" fill="#000000" transform="matrix(1.00, 0.00, -0.00, -1.00, 428.0, 133.0)">e</text><text xml:space="preserve" font-family="Helvetica-Light" font-size="32.0" fill="#000000" transform="matrix(1.00, 0.00, -0.00, -1.00, 445.8, 133.0)">l</text><text xml:space="preserve" font-family="Helvetica-Light" font-size="32.0" fill="#000000" transform="matrix(1.00, 0.00, -0.00, -1.00, 452.9, 133.0)">i</text><text xml:space="preserve" font-family="Helvetica-Light" font-size="32.0" fill="#000000" transform="matrix(1.00, 0.00, -0.00, -1.00, 460.0, 133.0)">a</text><text xml:space="preserve" font-family="Helvetica-Light" font-size="32.0" fill="#000000" transform="matrix(1.00, 0.00, -0.00, -1.00, 477.8, 133.0)"> </text><text xml:space="preserve" font-family="Helvetica-Light" font-size="32.0" fill="#000000" transform="matrix(1.00, 0.00, -0.00, -1.00, 486.7, 133.0)">M</text><text xml:space="preserve" font-family="Helvetica-Light" font-size="32.0" fill="#000000" transform="matrix(1.00, 0.00, -0.00, -1.00, 513.3, 133.0)">c</text><text xml:space="preserve" font-family="Helvetica-Light" font-size="32.0" fill="#000000" transform="matrix(1.00, 0.00, -0.00, -1.00, 531.1, 133.0)">N</text><text xml:space="preserve" font-family="Helvetica-Light" font-size="32.0" fill="#000000" transform="matrix(1.00, 0.00, -0.00, -1.00, 554.2, 133.0)">a</text><text xml:space="preserve" font-family="Helvetica-Light" font-size="32.0" fill="#000000" transform="matrix(1.00, 0.00, -0.00, -1.00, 572.0, 133.0)">m</text><text xml:space="preserve" font-family="Helvetica-Light" font-size="32.0" fill="#000000" transform="matrix(1.00, 0.00, -0.00, -1.00, 598.7, 133.0)">a</text><text xml:space="preserve" font-family="Helvetica-Light" font-size="32.0" fill="#000000" transform="matrix(1.00, 0.00, -0.00, -1.00, 616.5, 133.0)">r</text><text xml:space="preserve" font-family="Helvetica-Light" font-size="32.0" fill="#000000" transform="matrix(1.00, 0.00, -0.00, -1.00, 627.1, 133.0)">a</text><text xml:space="preserve" font-family="Helvetica-Light" font-size="32.0" fill="#000000" transform="matrix(1.00, 0.00, -0.00, -1.00, 644.9, 133.0)"> </text><text xml:space="preserve" font-family="Helvetica-Bold" font-weight="bold" font-size="32.0" fill="#0264C0" transform="matrix(1.00, 0.00, -0.00, -1.00, 419.0, 95.0)">@</text><text xml:space="preserve" font-family="Helvetica-Bold" font-weight="bold" font-size="32.0" fill="#0264C0" transform="matrix(1.00, 0.00, -0.00, -1.00, 450.2, 95.0)">A</text><text xml:space="preserve" font-family="Helvetica-Bold" font-weight="bold" font-size="32.0" fill="#0264C0" transform="matrix(1.00, 0.00, -0.00, -1.00, 473.3, 95.0)">m</text><text xml:space="preserve" font-family="Helvetica-Bold" font-weight="bold" font-size="32.0" fill="#0264C0" transform="matrix(1.00, 0.00, -0.00, -1.00, 501.8, 95.0)">e</text><text xml:space="preserve" font-family="Helvetica-Bold" font-weight="bold" font-size="32.0" fill="#0264C0" transform="matrix(1.00, 0.00, -0.00, -1.00, 519.6, 95.0)">l</text><text xml:space="preserve" font-family="Helvetica-Bold" font-weight="bold" font-size="32.0" fill="#0264C0" transform="matrix(1.00, 0.00, -0.00, -1.00, 528.5, 95.0)">i</text><text xml:space="preserve" font-family="Helvetica-Bold" font-weight="bold" font-size="32.0" fill="#0264C0" transform="matrix(1.00, 0.00, -0.00, -1.00, 537.4, 95.0)">a</text><text xml:space="preserve" font-family="Helvetica-Bold" font-weight="bold" font-size="32.0" fill="#0264C0" transform="matrix(1.00, 0.00, -0.00, -1.00, 555.2, 95.0)">M</text><text xml:space="preserve" font-family="Helvetica-Bold" font-weight="bold" font-size="32.0" fill="#0264C0" transform="matrix(1.00, 0.00, -0.00, -1.00, 581.8, 95.0)">N</text></g></svg>