<?xml version="1.0" encoding="UTF-8" standalone="no"?><svg xmlns="http://www.w3.org/2000/svg" xmlns:xlink="http://www.w3.org/1999/xlink" clip-rule="evenodd" stroke-miterlimit="4.00" viewBox="0 0 1024 768"><desc>SVG generated by Keynote</desc><defs></defs><g transform="matrix(1.00, 0.00, -0.00, -1.00, 0.0, 768.0)"><path d="M 0.0 768.0 L 1024.0 768.0 L 1024.0 0.0 L 0.0 0.0 Z M 0.0 768.0 " fill="#FEFFFF"></path><text xml:space="preserve" font-family="CourierNewPSMT" font-size="46.0" fill="#000000" transform="matrix(1.00, 0.00, -0.00, -1.00, 104.0, 627.0)">m</text><text xml:space="preserve" font-family="CourierNewPSMT" font-size="46.0" fill="#000000" transform="matrix(1.00, 0.00, -0.00, -1.00, 131.6, 627.0)">i</text><text xml:space="preserve" font-family="CourierNewPSMT" font-size="46.0" fill="#000000" transform="matrix(1.00, 0.00, -0.00, -1.00, 159.2, 627.0)">n</text><text xml:space="preserve" font-family="CourierNewPSMT" font-size="46.0" fill="#000000" transform="matrix(1.00, 0.00, -0.00, -1.00, 186.8, 627.0)">i</text><text xml:space="preserve" font-family="CourierNewPSMT" font-size="46.0" fill="#000000" transform="matrix(1.00, 0.00, -0.00, -1.00, 214.4, 627.0)">_</text><text xml:space="preserve" font-family="CourierNewPSMT" font-size="46.0" fill="#000000" transform="matrix(1.00, 0.00, -0.00, -1.00, 242.0, 627.0)">d</text><text xml:space="preserve" font-family="CourierNewPSMT" font-size="46.0" fill="#000000" transform="matrix(1.00, 0.00, -0.00, -1.00, 269.7, 627.0)"> </text><text xml:space="preserve" font-family="CourierNewPSMT" font-size="46.0" fill="#000000" transform="matrix(1.00, 0.00, -0.00, -1.00, 297.3, 627.0)">%</text><text xml:space="preserve" font-family="CourierNewPSMT" font-size="46.0" fill="#000000" transform="matrix(1.00, 0.00, -0.00, -1.00, 324.9, 627.0)">&gt;</text><text xml:space="preserve" font-family="CourierNewPSMT" font-size="46.0" fill="#000000" transform="matrix(1.00, 0.00, -0.00, -1.00, 352.5, 627.0)">%</text><text xml:space="preserve" font-family="CourierNewPSMT" font-size="46.0" fill="#000000" transform="matrix(1.00, 0.00, -0.00, -1.00, 380.1, 627.0)"> </text><text xml:space="preserve" font-family="CourierNewPSMT" font-size="46.0" fill="#000000" transform="matrix(1.00, 0.00, -0.00, -1.00, 104.0, 575.0)"> </text><text xml:space="preserve" font-family="CourierNewPSMT" font-size="46.0" fill="#000000" transform="matrix(1.00, 0.00, -0.00, -1.00, 131.6, 575.0)"> </text><text xml:space="preserve" font-family="CourierNewPSMT" font-size="46.0" fill="#021993" transform="matrix(1.00, 0.00, -0.00, -1.00, 159.2, 575.0)">s</text><text xml:space="preserve" font-family="CourierNewPSMT" font-size="46.0" fill="#021993" transform="matrix(1.00, 0.00, -0.00, -1.00, 186.8, 575.0)">e</text><text xml:space="preserve" font-family="CourierNewPSMT" font-size="46.0" fill="#021993" transform="matrix(1.00, 0.00, -0.00, -1.00, 214.4, 575.0)">l</text><text xml:space="preserve" font-family="CourierNewPSMT" font-size="46.0" fill="#021993" transform="matrix(1.00, 0.00, -0.00, -1.00, 242.0, 575.0)">e</text><text xml:space="preserve" font-family="CourierNewPSMT" font-size="46.0" fill="#021993" transform="matrix(1.00, 0.00, -0.00, -1.00, 269.6, 575.0)">c</text><text xml:space="preserve" font-family="CourierNewPSMT" font-size="46.0" fill="#021993" transform="matrix(1.00, 0.00, -0.00, -1.00, 297.3, 575.0)">t</text><text xml:space="preserve" font-family="CourierNewPSMT" font-size="46.0" fill="#000000" transform="matrix(1.00, 0.00, -0.00, -1.00, 324.8, 575.0)">(</text><text xml:space="preserve" font-family="CourierNewPSMT" font-size="46.0" fill="#000000" transform="matrix(1.00, 0.00, -0.00, -1.00, 352.4, 575.0)">x</text><text xml:space="preserve" font-family="CourierNewPSMT" font-size="46.0" fill="#000000" transform="matrix(1.00, 0.00, -0.00, -1.00, 380.1, 575.0)">,</text><text xml:space="preserve" font-family="CourierNewPSMT" font-size="46.0" fill="#000000" transform="matrix(1.00, 0.00, -0.00, -1.00, 407.7, 575.0)">y</text><text xml:space="preserve" font-family="CourierNewPSMT" font-size="46.0" fill="#000000" transform="matrix(1.00, 0.00, -0.00, -1.00, 435.3, 575.0)">,</text><text xml:space="preserve" font-family="CourierNewPSMT" font-size="46.0" fill="#000000" transform="matrix(1.00, 0.00, -0.00, -1.00, 462.9, 575.0)">z</text><text xml:space="preserve" font-family="CourierNewPSMT" font-size="46.0" fill="#000000" transform="matrix(1.00, 0.00, -0.00, -1.00, 490.5, 575.0)">)</text><text xml:space="preserve" font-family="CourierNewPSMT" font-size="46.0" fill="#000000" transform="matrix(1.00, 0.00, -0.00, -1.00, 518.1, 575.0)"> </text><text xml:space="preserve" font-family="CourierNewPSMT" font-size="46.0" fill="#000000" transform="matrix(1.00, 0.00, -0.00, -1.00, 545.7, 575.0)">%</text><text xml:space="preserve" font-family="CourierNewPSMT" font-size="46.0" fill="#000000" transform="matrix(1.00, 0.00, -0.00, -1.00, 573.3, 575.0)">&gt;</text><text xml:space="preserve" font-family="CourierNewPSMT" font-size="46.0" fill="#000000" transform="matrix(1.00, 0.00, -0.00, -1.00, 600.9, 575.0)">%</text><text xml:space="preserve" font-family="CourierNewPSMT" font-size="46.0" fill="#000000" transform="matrix(1.00, 0.00, -0.00, -1.00, 628.5, 575.0)"> </text><text xml:space="preserve" font-family="CourierNewPSMT" font-size="46.0" fill="#000000" transform="matrix(1.00, 0.00, -0.00, -1.00, 104.0, 523.0)"> </text><text xml:space="preserve" font-family="CourierNewPSMT" font-size="46.0" fill="#000000" transform="matrix(1.00, 0.00, -0.00, -1.00, 131.6, 523.0)"> </text><text xml:space="preserve" font-family="CourierNewPSMT" font-size="46.0" fill="#021993" transform="matrix(1.00, 0.00, -0.00, -1.00, 159.2, 523.0)">p</text><text xml:space="preserve" font-family="CourierNewPSMT" font-size="46.0" fill="#021993" transform="matrix(1.00, 0.00, -0.00, -1.00, 186.8, 523.0)">l</text><text xml:space="preserve" font-family="CourierNewPSMT" font-size="46.0" fill="#021993" transform="matrix(1.00, 0.00, -0.00, -1.00, 214.4, 523.0)">o</text><text xml:space="preserve" font-family="CourierNewPSMT" font-size="46.0" fill="#021993" transform="matrix(1.00, 0.00, -0.00, -1.00, 242.0, 523.0)">t</text><text xml:space="preserve" font-family="CourierNewPSMT" font-size="46.0" fill="#000000" transform="matrix(1.00, 0.00, -0.00, -1.00, 269.6, 523.0)">(</text><text xml:space="preserve" font-family="CourierNewPSMT" font-size="46.0" fill="#000000" transform="matrix(1.00, 0.00, -0.00, -1.00, 297.2, 523.0)">)</text><text xml:space="preserve" font-family="CourierNewPSMT" font-size="46.0" fill="#000000" transform="matrix(1.00, 0.00, -0.00, -1.00, 324.8, 523.0)"> </text></g></svg>