<?xml version="1.0" encoding="UTF-8" standalone="no"?><svg xmlns="http://www.w3.org/2000/svg" xmlns:xlink="http://www.w3.org/1999/xlink" clip-rule="evenodd" stroke-miterlimit="4.00" viewBox="0 0 1024 768"><desc>SVG generated by Keynote</desc><defs></defs><g transform="matrix(1.00, 0.00, -0.00, -1.00, 0.0, 768.0)"><path d="M 0.0 768.0 L 1024.0 768.0 L 1024.0 0.0 L 0.0 0.0 Z M 0.0 768.0 " fill="#FEFFFF"></path><text xml:space="preserve" font-family="CourierNewPSMT" font-size="40.0" fill="#000000" transform="matrix(1.00, 0.00, -0.00, -1.00, 105.0, 633.0)">m</text><text xml:space="preserve" font-family="CourierNewPSMT" font-size="40.0" fill="#000000" transform="matrix(1.00, 0.00, -0.00, -1.00, 129.0, 633.0)">i</text><text xml:space="preserve" font-family="CourierNewPSMT" font-size="40.0" fill="#000000" transform="matrix(1.00, 0.00, -0.00, -1.00, 153.0, 633.0)">n</text><text xml:space="preserve" font-family="CourierNewPSMT" font-size="40.0" fill="#000000" transform="matrix(1.00, 0.00, -0.00, -1.00, 177.0, 633.0)">i</text><text xml:space="preserve" font-family="CourierNewPSMT" font-size="40.0" fill="#000000" transform="matrix(1.00, 0.00, -0.00, -1.00, 201.0, 633.0)">_</text><text xml:space="preserve" font-family="CourierNewPSMT" font-size="40.0" fill="#000000" transform="matrix(1.00, 0.00, -0.00, -1.00, 225.0, 633.0)">d</text><text xml:space="preserve" font-family="CourierNewPSMT" font-size="40.0" fill="#000000" transform="matrix(1.00, 0.00, -0.00, -1.00, 249.0, 633.0)"> </text><text xml:space="preserve" font-family="CourierNewPSMT" font-size="40.0" fill="#000000" transform="matrix(1.00, 0.00, -0.00, -1.00, 273.1, 633.0)">%</text><text xml:space="preserve" font-family="CourierNewPSMT" font-size="40.0" fill="#000000" transform="matrix(1.00, 0.00, -0.00, -1.00, 297.1, 633.0)">&gt;</text><text xml:space="preserve" font-family="CourierNewPSMT" font-size="40.0" fill="#000000" transform="matrix(1.00, 0.00, -0.00, -1.00, 321.1, 633.0)">%</text><text xml:space="preserve" font-family="CourierNewPSMT" font-size="40.0" fill="#000000" transform="matrix(1.00, 0.00, -0.00, -1.00, 345.1, 633.0)"> </text><text xml:space="preserve" font-family="CourierNewPSMT" font-size="40.0" fill="#000000" transform="matrix(1.00, 0.00, -0.00, -1.00, 105.0, 588.0)"> </text><text xml:space="preserve" font-family="CourierNewPSMT" font-size="40.0" fill="#000000" transform="matrix(1.00, 0.00, -0.00, -1.00, 129.0, 588.0)"> </text><text xml:space="preserve" font-family="CourierNewPSMT" font-size="40.0" fill="#021993" transform="matrix(1.00, 0.00, -0.00, -1.00, 153.0, 588.0)">s</text><text xml:space="preserve" font-family="CourierNewPSMT" font-size="40.0" fill="#021993" transform="matrix(1.00, 0.00, -0.00, -1.00, 177.0, 588.0)">e</text><text xml:space="preserve" font-family="CourierNewPSMT" font-size="40.0" fill="#021993" transform="matrix(1.00, 0.00, -0.00, -1.00, 201.0, 588.0)">l</text><text xml:space="preserve" font-family="CourierNewPSMT" font-size="40.0" fill="#021993" transform="matrix(1.00, 0.00, -0.00, -1.00, 225.0, 588.0)">e</text><text xml:space="preserve" font-family="CourierNewPSMT" font-size="40.0" fill="#021993" transform="matrix(1.00, 0.00, -0.00, -1.00, 249.0, 588.0)">c</text><text xml:space="preserve" font-family="CourierNewPSMT" font-size="40.0" fill="#021993" transform="matrix(1.00, 0.00, -0.00, -1.00, 273.0, 588.0)">t</text><text xml:space="preserve" font-family="CourierNewPSMT" font-size="40.0" fill="#000000" transform="matrix(1.00, 0.00, -0.00, -1.00, 297.0, 588.0)">(</text><text xml:space="preserve" font-family="CourierNewPSMT" font-size="40.0" fill="#000000" transform="matrix(1.00, 0.00, -0.00, -1.00, 321.0, 588.0)">c</text><text xml:space="preserve" font-family="CourierNewPSMT" font-size="40.0" fill="#000000" transform="matrix(1.00, 0.00, -0.00, -1.00, 345.0, 588.0)">a</text><text xml:space="preserve" font-family="CourierNewPSMT" font-size="40.0" fill="#000000" transform="matrix(1.00, 0.00, -0.00, -1.00, 369.1, 588.0)">r</text><text xml:space="preserve" font-family="CourierNewPSMT" font-size="40.0" fill="#000000" transform="matrix(1.00, 0.00, -0.00, -1.00, 393.1, 588.0)">a</text><text xml:space="preserve" font-family="CourierNewPSMT" font-size="40.0" fill="#000000" transform="matrix(1.00, 0.00, -0.00, -1.00, 417.1, 588.0)">t</text><text xml:space="preserve" font-family="CourierNewPSMT" font-size="40.0" fill="#000000" transform="matrix(1.00, 0.00, -0.00, -1.00, 441.1, 588.0)">,</text><text xml:space="preserve" font-family="CourierNewPSMT" font-size="40.0" fill="#000000" transform="matrix(1.00, 0.00, -0.00, -1.00, 465.1, 588.0)"> </text><text xml:space="preserve" font-family="CourierNewPSMT" font-size="40.0" fill="#000000" transform="matrix(1.00, 0.00, -0.00, -1.00, 489.1, 588.0)">c</text><text xml:space="preserve" font-family="CourierNewPSMT" font-size="40.0" fill="#000000" transform="matrix(1.00, 0.00, -0.00, -1.00, 513.1, 588.0)">u</text><text xml:space="preserve" font-family="CourierNewPSMT" font-size="40.0" fill="#000000" transform="matrix(1.00, 0.00, -0.00, -1.00, 537.1, 588.0)">t</text><text xml:space="preserve" font-family="CourierNewPSMT" font-size="40.0" fill="#000000" transform="matrix(1.00, 0.00, -0.00, -1.00, 561.1, 588.0)">,</text><text xml:space="preserve" font-family="CourierNewPSMT" font-size="40.0" fill="#000000" transform="matrix(1.00, 0.00, -0.00, -1.00, 585.1, 588.0)"> </text><text xml:space="preserve" font-family="CourierNewPSMT" font-size="40.0" fill="#000000" transform="matrix(1.00, 0.00, -0.00, -1.00, 609.1, 588.0)">c</text><text xml:space="preserve" font-family="CourierNewPSMT" font-size="40.0" fill="#000000" transform="matrix(1.00, 0.00, -0.00, -1.00, 633.1, 588.0)">o</text><text xml:space="preserve" font-family="CourierNewPSMT" font-size="40.0" fill="#000000" transform="matrix(1.00, 0.00, -0.00, -1.00, 657.1, 588.0)">l</text><text xml:space="preserve" font-family="CourierNewPSMT" font-size="40.0" fill="#000000" transform="matrix(1.00, 0.00, -0.00, -1.00, 681.2, 588.0)">o</text><text xml:space="preserve" font-family="CourierNewPSMT" font-size="40.0" fill="#000000" transform="matrix(1.00, 0.00, -0.00, -1.00, 705.2, 588.0)">r</text><text xml:space="preserve" font-family="CourierNewPSMT" font-size="40.0" fill="#000000" transform="matrix(1.00, 0.00, -0.00, -1.00, 729.2, 588.0)">,</text><text xml:space="preserve" font-family="CourierNewPSMT" font-size="40.0" fill="#000000" transform="matrix(1.00, 0.00, -0.00, -1.00, 753.2, 588.0)"> </text><text xml:space="preserve" font-family="CourierNewPSMT" font-size="40.0" fill="#000000" transform="matrix(1.00, 0.00, -0.00, -1.00, 777.2, 588.0)">d</text><text xml:space="preserve" font-family="CourierNewPSMT" font-size="40.0" fill="#000000" transform="matrix(1.00, 0.00, -0.00, -1.00, 801.2, 588.0)">e</text><text xml:space="preserve" font-family="CourierNewPSMT" font-size="40.0" fill="#000000" transform="matrix(1.00, 0.00, -0.00, -1.00, 825.2, 588.0)">p</text><text xml:space="preserve" font-family="CourierNewPSMT" font-size="40.0" fill="#000000" transform="matrix(1.00, 0.00, -0.00, -1.00, 849.2, 588.0)">t</text><text xml:space="preserve" font-family="CourierNewPSMT" font-size="40.0" fill="#000000" transform="matrix(1.00, 0.00, -0.00, -1.00, 873.2, 588.0)">h</text><text xml:space="preserve" font-family="CourierNewPSMT" font-size="40.0" fill="#000000" transform="matrix(1.00, 0.00, -0.00, -1.00, 897.2, 588.0)">)</text><text xml:space="preserve" font-family="CourierNewPSMT" font-size="40.0" fill="#000000" transform="matrix(1.00, 0.00, -0.00, -1.00, 921.2, 588.0)"> </text><text xml:space="preserve" font-family="CourierNewPSMT" font-size="40.0" fill="#000000" transform="matrix(1.00, 0.00, -0.00, -1.00, 945.2, 588.0)">%</text><text xml:space="preserve" font-family="CourierNewPSMT" font-size="40.0" fill="#000000" transform="matrix(1.00, 0.00, -0.00, -1.00, 969.3, 588.0)">&gt;</text><text xml:space="preserve" font-family="CourierNewPSMT" font-size="40.0" fill="#000000" transform="matrix(1.00, 0.00, -0.00, -1.00, 993.3, 588.0)">%</text><text xml:space="preserve" font-family="CourierNewPSMT" font-size="40.0" fill="#000000" transform="matrix(1.00, 0.00, -0.00, -1.00, 1017.3, 588.0)"> </text><text xml:space="preserve" font-family="CourierNewPSMT" font-size="40.0" fill="#000000" transform="matrix(1.00, 0.00, -0.00, -1.00, 1041.3, 588.0)"> </text><text xml:space="preserve" font-family="CourierNewPSMT" font-size="40.0" fill="#000000" transform="matrix(1.00, 0.00, -0.00, -1.00, 105.0, 543.0)"> </text><text xml:space="preserve" font-family="CourierNewPSMT" font-size="40.0" fill="#000000" transform="matrix(1.00, 0.00, -0.00, -1.00, 129.0, 543.0)"> </text><text xml:space="preserve" font-family="CourierNewPSMT" font-size="40.0" fill="#021993" transform="matrix(1.00, 0.00, -0.00, -1.00, 153.0, 543.0)">g</text><text xml:space="preserve" font-family="CourierNewPSMT" font-size="40.0" fill="#021993" transform="matrix(1.00, 0.00, -0.00, -1.00, 177.0, 543.0)">p</text><text xml:space="preserve" font-family="CourierNewPSMT" font-size="40.0" fill="#021993" transform="matrix(1.00, 0.00, -0.00, -1.00, 201.0, 543.0)">a</text><text xml:space="preserve" font-family="CourierNewPSMT" font-size="40.0" fill="#021993" transform="matrix(1.00, 0.00, -0.00, -1.00, 225.0, 543.0)">i</text><text xml:space="preserve" font-family="CourierNewPSMT" font-size="40.0" fill="#021993" transform="matrix(1.00, 0.00, -0.00, -1.00, 249.0, 543.0)">r</text><text xml:space="preserve" font-family="CourierNewPSMT" font-size="40.0" fill="#021993" transform="matrix(1.00, 0.00, -0.00, -1.00, 273.0, 543.0)">s</text><text xml:space="preserve" font-family="CourierNewPSMT" font-size="40.0" fill="#000000" transform="matrix(1.00, 0.00, -0.00, -1.00, 297.0, 543.0)">(</text><text xml:space="preserve" font-family="CourierNewPSMT" font-size="40.0" fill="#000000" transform="matrix(1.00, 0.00, -0.00, -1.00, 321.0, 543.0)">o</text><text xml:space="preserve" font-family="CourierNewPSMT" font-size="40.0" fill="#000000" transform="matrix(1.00, 0.00, -0.00, -1.00, 345.0, 543.0)">u</text><text xml:space="preserve" font-family="CourierNewPSMT" font-size="40.0" fill="#000000" transform="matrix(1.00, 0.00, -0.00, -1.00, 369.1, 543.0)">t</text><text xml:space="preserve" font-family="CourierNewPSMT" font-size="40.0" fill="#000000" transform="matrix(1.00, 0.00, -0.00, -1.00, 393.1, 543.0)">e</text><text xml:space="preserve" font-family="CourierNewPSMT" font-size="40.0" fill="#000000" transform="matrix(1.00, 0.00, -0.00, -1.00, 417.1, 543.0)">r</text><text xml:space="preserve" font-family="CourierNewPSMT" font-size="40.0" fill="#000000" transform="matrix(1.00, 0.00, -0.00, -1.00, 441.1, 543.0)">.</text><text xml:space="preserve" font-family="CourierNewPSMT" font-size="40.0" fill="#000000" transform="matrix(1.00, 0.00, -0.00, -1.00, 465.1, 543.0)">r</text><text xml:space="preserve" font-family="CourierNewPSMT" font-size="40.0" fill="#000000" transform="matrix(1.00, 0.00, -0.00, -1.00, 489.1, 543.0)">o</text><text xml:space="preserve" font-family="CourierNewPSMT" font-size="40.0" fill="#000000" transform="matrix(1.00, 0.00, -0.00, -1.00, 513.1, 543.0)">t</text><text xml:space="preserve" font-family="CourierNewPSMT" font-size="40.0" fill="#000000" transform="matrix(1.00, 0.00, -0.00, -1.00, 537.1, 543.0)">=</text><text xml:space="preserve" font-family="CourierNewPSMT" font-size="40.0" fill="#021993" transform="matrix(1.00, 0.00, -0.00, -1.00, 561.1, 543.0)">c</text><text xml:space="preserve" font-family="CourierNewPSMT" font-size="40.0" fill="#000000" transform="matrix(1.00, 0.00, -0.00, -1.00, 585.1, 543.0)">(</text><text xml:space="preserve" font-family="CourierNewPSMT" font-size="40.0" fill="#BE8F00" transform="matrix(1.00, 0.00, -0.00, -1.00, 609.1, 543.0)">9</text><text xml:space="preserve" font-family="CourierNewPSMT" font-size="40.0" fill="#BE8F00" transform="matrix(1.00, 0.00, -0.00, -1.00, 633.1, 543.0)">0</text><text xml:space="preserve" font-family="CourierNewPSMT" font-size="40.0" fill="#000000" transform="matrix(1.00, 0.00, -0.00, -1.00, 657.1, 543.0)">,</text><text xml:space="preserve" font-family="CourierNewPSMT" font-size="40.0" fill="#000000" transform="matrix(1.00, 0.00, -0.00, -1.00, 681.1, 543.0)"> </text><text xml:space="preserve" font-family="CourierNewPSMT" font-size="40.0" fill="#BE8F00" transform="matrix(1.00, 0.00, -0.00, -1.00, 705.1, 543.0)">0</text><text xml:space="preserve" font-family="CourierNewPSMT" font-size="40.0" fill="#000000" transform="matrix(1.00, 0.00, -0.00, -1.00, 729.1, 543.0)">)</text><text xml:space="preserve" font-family="CourierNewPSMT" font-size="40.0" fill="#000000" transform="matrix(1.00, 0.00, -0.00, -1.00, 753.1, 543.0)">)</text><text xml:space="preserve" font-family="CourierNewPSMT" font-size="40.0" fill="#000000" transform="matrix(1.00, 0.00, -0.00, -1.00, 777.1, 543.0)"> </text></g></svg>