<?xml version="1.0" encoding="UTF-8" standalone="no"?><svg xmlns="http://www.w3.org/2000/svg" xmlns:xlink="http://www.w3.org/1999/xlink" clip-rule="evenodd" stroke-miterlimit="4.00" viewBox="0 0 1024 768"><desc>SVG generated by Keynote</desc><defs></defs><g transform="matrix(1.00, 0.00, -0.00, -1.00, 0.0, 768.0)"><path d="M 0.0 768.0 L 1024.0 768.0 L 1024.0 0.0 L 0.0 0.0 Z M 0.0 768.0 " fill="#FEFFFF"></path><text xml:space="preserve" font-family="CourierNewPSMT" font-size="36.0" fill="#021993" transform="matrix(1.00, 0.00, -0.00, -1.00, 103.0, 623.0)">l</text><text xml:space="preserve" font-family="CourierNewPSMT" font-size="36.0" fill="#021993" transform="matrix(1.00, 0.00, -0.00, -1.00, 124.6, 623.0)">i</text><text xml:space="preserve" font-family="CourierNewPSMT" font-size="36.0" fill="#021993" transform="matrix(1.00, 0.00, -0.00, -1.00, 146.2, 623.0)">b</text><text xml:space="preserve" font-family="CourierNewPSMT" font-size="36.0" fill="#021993" transform="matrix(1.00, 0.00, -0.00, -1.00, 167.8, 623.0)">r</text><text xml:space="preserve" font-family="CourierNewPSMT" font-size="36.0" fill="#021993" transform="matrix(1.00, 0.00, -0.00, -1.00, 189.4, 623.0)">a</text><text xml:space="preserve" font-family="CourierNewPSMT" font-size="36.0" fill="#021993" transform="matrix(1.00, 0.00, -0.00, -1.00, 211.0, 623.0)">r</text><text xml:space="preserve" font-family="CourierNewPSMT" font-size="36.0" fill="#021993" transform="matrix(1.00, 0.00, -0.00, -1.00, 232.6, 623.0)">y</text><text xml:space="preserve" font-family="CourierNewPSMT" font-size="36.0" fill="#000000" transform="matrix(1.00, 0.00, -0.00, -1.00, 254.2, 623.0)">(</text><text xml:space="preserve" font-family="CourierNewPSMT" font-size="36.0" fill="#000000" transform="matrix(1.00, 0.00, -0.00, -1.00, 275.8, 623.0)">n</text><text xml:space="preserve" font-family="CourierNewPSMT" font-size="36.0" fill="#000000" transform="matrix(1.00, 0.00, -0.00, -1.00, 297.4, 623.0)">u</text><text xml:space="preserve" font-family="CourierNewPSMT" font-size="36.0" fill="#000000" transform="matrix(1.00, 0.00, -0.00, -1.00, 319.0, 623.0)">l</text><text xml:space="preserve" font-family="CourierNewPSMT" font-size="36.0" fill="#000000" transform="matrix(1.00, 0.00, -0.00, -1.00, 340.7, 623.0)">l</text><text xml:space="preserve" font-family="CourierNewPSMT" font-size="36.0" fill="#000000" transform="matrix(1.00, 0.00, -0.00, -1.00, 362.3, 623.0)">a</text><text xml:space="preserve" font-family="CourierNewPSMT" font-size="36.0" fill="#000000" transform="matrix(1.00, 0.00, -0.00, -1.00, 383.9, 623.0)">b</text><text xml:space="preserve" font-family="CourierNewPSMT" font-size="36.0" fill="#000000" transform="matrix(1.00, 0.00, -0.00, -1.00, 405.5, 623.0)">o</text><text xml:space="preserve" font-family="CourierNewPSMT" font-size="36.0" fill="#000000" transform="matrix(1.00, 0.00, -0.00, -1.00, 427.1, 623.0)">r</text><text xml:space="preserve" font-family="CourierNewPSMT" font-size="36.0" fill="#000000" transform="matrix(1.00, 0.00, -0.00, -1.00, 448.7, 623.0)">)</text><text xml:space="preserve" font-family="CourierNewPSMT" font-size="36.0" fill="#000000" transform="matrix(1.00, 0.00, -0.00, -1.00, 470.3, 623.0)"> </text><text xml:space="preserve" font-family="CourierNewPSMT" font-size="36.0" fill="#021993" transform="matrix(1.00, 0.00, -0.00, -1.00, 103.0, 582.0)">l</text><text xml:space="preserve" font-family="CourierNewPSMT" font-size="36.0" fill="#021993" transform="matrix(1.00, 0.00, -0.00, -1.00, 124.6, 582.0)">i</text><text xml:space="preserve" font-family="CourierNewPSMT" font-size="36.0" fill="#021993" transform="matrix(1.00, 0.00, -0.00, -1.00, 146.2, 582.0)">b</text><text xml:space="preserve" font-family="CourierNewPSMT" font-size="36.0" fill="#021993" transform="matrix(1.00, 0.00, -0.00, -1.00, 167.8, 582.0)">r</text><text xml:space="preserve" font-family="CourierNewPSMT" font-size="36.0" fill="#021993" transform="matrix(1.00, 0.00, -0.00, -1.00, 189.4, 582.0)">a</text><text xml:space="preserve" font-family="CourierNewPSMT" font-size="36.0" fill="#021993" transform="matrix(1.00, 0.00, -0.00, -1.00, 211.0, 582.0)">r</text><text xml:space="preserve" font-family="CourierNewPSMT" font-size="36.0" fill="#021993" transform="matrix(1.00, 0.00, -0.00, -1.00, 232.6, 582.0)">y</text><text xml:space="preserve" font-family="CourierNewPSMT" font-size="36.0" fill="#000000" transform="matrix(1.00, 0.00, -0.00, -1.00, 254.2, 582.0)">(</text><text xml:space="preserve" font-family="CourierNewPSMT" font-size="36.0" fill="#000000" transform="matrix(1.00, 0.00, -0.00, -1.00, 275.8, 582.0)">g</text><text xml:space="preserve" font-family="CourierNewPSMT" font-size="36.0" fill="#000000" transform="matrix(1.00, 0.00, -0.00, -1.00, 297.4, 582.0)">g</text><text xml:space="preserve" font-family="CourierNewPSMT" font-size="36.0" fill="#000000" transform="matrix(1.00, 0.00, -0.00, -1.00, 319.0, 582.0)">p</text><text xml:space="preserve" font-family="CourierNewPSMT" font-size="36.0" fill="#000000" transform="matrix(1.00, 0.00, -0.00, -1.00, 340.7, 582.0)">l</text><text xml:space="preserve" font-family="CourierNewPSMT" font-size="36.0" fill="#000000" transform="matrix(1.00, 0.00, -0.00, -1.00, 362.3, 582.0)">o</text><text xml:space="preserve" font-family="CourierNewPSMT" font-size="36.0" fill="#000000" transform="matrix(1.00, 0.00, -0.00, -1.00, 383.9, 582.0)">t</text><text xml:space="preserve" font-family="CourierNewPSMT" font-size="36.0" fill="#000000" transform="matrix(1.00, 0.00, -0.00, -1.00, 405.5, 582.0)">2</text><text xml:space="preserve" font-family="CourierNewPSMT" font-size="36.0" fill="#000000" transform="matrix(1.00, 0.00, -0.00, -1.00, 427.1, 582.0)">)</text><text xml:space="preserve" font-family="CourierNewPSMT" font-size="36.0" fill="#000000" transform="matrix(1.00, 0.00, -0.00, -1.00, 448.7, 582.0)"> </text><text xml:space="preserve" font-family="CourierNewPSMT" font-size="36.0" fill="#021993" transform="matrix(1.00, 0.00, -0.00, -1.00, 103.0, 541.0)">q</text><text xml:space="preserve" font-family="CourierNewPSMT" font-size="36.0" fill="#021993" transform="matrix(1.00, 0.00, -0.00, -1.00, 124.6, 541.0)">p</text><text xml:space="preserve" font-family="CourierNewPSMT" font-size="36.0" fill="#021993" transform="matrix(1.00, 0.00, -0.00, -1.00, 146.2, 541.0)">l</text><text xml:space="preserve" font-family="CourierNewPSMT" font-size="36.0" fill="#021993" transform="matrix(1.00, 0.00, -0.00, -1.00, 167.8, 541.0)">o</text><text xml:space="preserve" font-family="CourierNewPSMT" font-size="36.0" fill="#021993" transform="matrix(1.00, 0.00, -0.00, -1.00, 189.4, 541.0)">t</text><text xml:space="preserve" font-family="CourierNewPSMT" font-size="36.0" fill="#000000" transform="matrix(1.00, 0.00, -0.00, -1.00, 211.0, 541.0)">(</text><text xml:space="preserve" font-family="CourierNewPSMT" font-size="36.0" fill="#000000" transform="matrix(1.00, 0.00, -0.00, -1.00, 232.6, 541.0)">p</text><text xml:space="preserve" font-family="CourierNewPSMT" font-size="36.0" fill="#000000" transform="matrix(1.00, 0.00, -0.00, -1.00, 254.2, 541.0)">r</text><text xml:space="preserve" font-family="CourierNewPSMT" font-size="36.0" fill="#000000" transform="matrix(1.00, 0.00, -0.00, -1.00, 275.8, 541.0)">i</text><text xml:space="preserve" font-family="CourierNewPSMT" font-size="36.0" fill="#000000" transform="matrix(1.00, 0.00, -0.00, -1.00, 297.4, 541.0)">c</text><text xml:space="preserve" font-family="CourierNewPSMT" font-size="36.0" fill="#000000" transform="matrix(1.00, 0.00, -0.00, -1.00, 319.1, 541.0)">e</text><text xml:space="preserve" font-family="CourierNewPSMT" font-size="36.0" fill="#000000" transform="matrix(1.00, 0.00, -0.00, -1.00, 340.7, 541.0)">,</text><text xml:space="preserve" font-family="CourierNewPSMT" font-size="36.0" fill="#000000" transform="matrix(1.00, 0.00, -0.00, -1.00, 362.3, 541.0)"> </text><text xml:space="preserve" font-family="CourierNewPSMT" font-size="36.0" fill="#000000" transform="matrix(1.00, 0.00, -0.00, -1.00, 383.9, 541.0)">x</text><text xml:space="preserve" font-family="CourierNewPSMT" font-size="36.0" fill="#000000" transform="matrix(1.00, 0.00, -0.00, -1.00, 405.5, 541.0)">,</text><text xml:space="preserve" font-family="CourierNewPSMT" font-size="36.0" fill="#000000" transform="matrix(1.00, 0.00, -0.00, -1.00, 427.1, 541.0)"> </text><text xml:space="preserve" font-family="CourierNewPSMT" font-size="36.0" fill="#000000" transform="matrix(1.00, 0.00, -0.00, -1.00, 448.7, 541.0)">d</text><text xml:space="preserve" font-family="CourierNewPSMT" font-size="36.0" fill="#000000" transform="matrix(1.00, 0.00, -0.00, -1.00, 470.3, 541.0)">a</text><text xml:space="preserve" font-family="CourierNewPSMT" font-size="36.0" fill="#000000" transform="matrix(1.00, 0.00, -0.00, -1.00, 491.9, 541.0)">t</text><text xml:space="preserve" font-family="CourierNewPSMT" font-size="36.0" fill="#000000" transform="matrix(1.00, 0.00, -0.00, -1.00, 513.5, 541.0)">a</text><text xml:space="preserve" font-family="CourierNewPSMT" font-size="36.0" fill="#000000" transform="matrix(1.00, 0.00, -0.00, -1.00, 535.1, 541.0)">=</text><text xml:space="preserve" font-family="CourierNewPSMT" font-size="36.0" fill="#000000" transform="matrix(1.00, 0.00, -0.00, -1.00, 556.7, 541.0)">m</text><text xml:space="preserve" font-family="CourierNewPSMT" font-size="36.0" fill="#000000" transform="matrix(1.00, 0.00, -0.00, -1.00, 578.3, 541.0)">i</text><text xml:space="preserve" font-family="CourierNewPSMT" font-size="36.0" fill="#000000" transform="matrix(1.00, 0.00, -0.00, -1.00, 599.9, 541.0)">n</text><text xml:space="preserve" font-family="CourierNewPSMT" font-size="36.0" fill="#000000" transform="matrix(1.00, 0.00, -0.00, -1.00, 621.6, 541.0)">i</text><text xml:space="preserve" font-family="CourierNewPSMT" font-size="36.0" fill="#000000" transform="matrix(1.00, 0.00, -0.00, -1.00, 643.2, 541.0)">_</text><text xml:space="preserve" font-family="CourierNewPSMT" font-size="36.0" fill="#000000" transform="matrix(1.00, 0.00, -0.00, -1.00, 664.8, 541.0)">d</text><text xml:space="preserve" font-family="CourierNewPSMT" font-size="36.0" fill="#000000" transform="matrix(1.00, 0.00, -0.00, -1.00, 686.4, 541.0)">)</text><text xml:space="preserve" font-family="CourierNewPSMT" font-size="36.0" fill="#000000" transform="matrix(1.00, 0.00, -0.00, -1.00, 708.0, 541.0)"> </text><text xml:space="preserve" font-family="CourierNewPSMT" font-size="36.0" fill="#000000" transform="matrix(1.00, 0.00, -0.00, -1.00, 729.6, 541.0)">%</text><text xml:space="preserve" font-family="CourierNewPSMT" font-size="36.0" fill="#000000" transform="matrix(1.00, 0.00, -0.00, -1.00, 751.2, 541.0)">+</text><text xml:space="preserve" font-family="CourierNewPSMT" font-size="36.0" fill="#000000" transform="matrix(1.00, 0.00, -0.00, -1.00, 772.8, 541.0)">%</text><text xml:space="preserve" font-family="CourierNewPSMT" font-size="36.0" fill="#000000" transform="matrix(1.00, 0.00, -0.00, -1.00, 794.4, 541.0)"> </text><text xml:space="preserve" font-family="CourierNewPSMT" font-size="36.0" fill="#000000" transform="matrix(1.00, 0.00, -0.00, -1.00, 103.0, 500.0)"> </text><text xml:space="preserve" font-family="CourierNewPSMT" font-size="36.0" fill="#000000" transform="matrix(1.00, 0.00, -0.00, -1.00, 124.6, 500.0)"> </text><text xml:space="preserve" font-family="CourierNewPSMT" font-size="36.0" fill="#021993" transform="matrix(1.00, 0.00, -0.00, -1.00, 146.2, 500.0)">l</text><text xml:space="preserve" font-family="CourierNewPSMT" font-size="36.0" fill="#021993" transform="matrix(1.00, 0.00, -0.00, -1.00, 167.8, 500.0)">i</text><text xml:space="preserve" font-family="CourierNewPSMT" font-size="36.0" fill="#021993" transform="matrix(1.00, 0.00, -0.00, -1.00, 189.4, 500.0)">n</text><text xml:space="preserve" font-family="CourierNewPSMT" font-size="36.0" fill="#021993" transform="matrix(1.00, 0.00, -0.00, -1.00, 211.0, 500.0)">e</text><text xml:space="preserve" font-family="CourierNewPSMT" font-size="36.0" fill="#021993" transform="matrix(1.00, 0.00, -0.00, -1.00, 232.6, 500.0)">u</text><text xml:space="preserve" font-family="CourierNewPSMT" font-size="36.0" fill="#021993" transform="matrix(1.00, 0.00, -0.00, -1.00, 254.2, 500.0)">p</text><text xml:space="preserve" font-family="CourierNewPSMT" font-size="36.0" fill="#000000" transform="matrix(1.00, 0.00, -0.00, -1.00, 275.8, 500.0)">(</text><text xml:space="preserve" font-family="CourierNewPSMT" font-size="36.0" fill="#021993" transform="matrix(1.00, 0.00, -0.00, -1.00, 297.4, 500.0)">n</text><text xml:space="preserve" font-family="CourierNewPSMT" font-size="36.0" fill="#021993" transform="matrix(1.00, 0.00, -0.00, -1.00, 319.0, 500.0)">u</text><text xml:space="preserve" font-family="CourierNewPSMT" font-size="36.0" fill="#021993" transform="matrix(1.00, 0.00, -0.00, -1.00, 340.6, 500.0)">l</text><text xml:space="preserve" font-family="CourierNewPSMT" font-size="36.0" fill="#021993" transform="matrix(1.00, 0.00, -0.00, -1.00, 362.3, 500.0)">l</text><text xml:space="preserve" font-family="CourierNewPSMT" font-size="36.0" fill="#021993" transform="matrix(1.00, 0.00, -0.00, -1.00, 383.9, 500.0)">_</text><text xml:space="preserve" font-family="CourierNewPSMT" font-size="36.0" fill="#021993" transform="matrix(1.00, 0.00, -0.00, -1.00, 405.5, 500.0)">p</text><text xml:space="preserve" font-family="CourierNewPSMT" font-size="36.0" fill="#021993" transform="matrix(1.00, 0.00, -0.00, -1.00, 427.1, 500.0)">e</text><text xml:space="preserve" font-family="CourierNewPSMT" font-size="36.0" fill="#021993" transform="matrix(1.00, 0.00, -0.00, -1.00, 448.7, 500.0)">r</text><text xml:space="preserve" font-family="CourierNewPSMT" font-size="36.0" fill="#021993" transform="matrix(1.00, 0.00, -0.00, -1.00, 470.3, 500.0)">m</text><text xml:space="preserve" font-family="CourierNewPSMT" font-size="36.0" fill="#021993" transform="matrix(1.00, 0.00, -0.00, -1.00, 491.9, 500.0)">u</text><text xml:space="preserve" font-family="CourierNewPSMT" font-size="36.0" fill="#021993" transform="matrix(1.00, 0.00, -0.00, -1.00, 513.5, 500.0)">t</text><text xml:space="preserve" font-family="CourierNewPSMT" font-size="36.0" fill="#021993" transform="matrix(1.00, 0.00, -0.00, -1.00, 535.1, 500.0)">e</text><text xml:space="preserve" font-family="CourierNewPSMT" font-size="36.0" fill="#000000" transform="matrix(1.00, 0.00, -0.00, -1.00, 556.7, 500.0)">(</text><text xml:space="preserve" font-family="CourierNewPSMT" font-size="36.0" fill="#CC1C00" transform="matrix(1.00, 0.00, -0.00, -1.00, 578.3, 500.0)">'</text><text xml:space="preserve" font-family="CourierNewPSMT" font-size="36.0" fill="#CC1C00" transform="matrix(1.00, 0.00, -0.00, -1.00, 599.9, 500.0)">x</text><text xml:space="preserve" font-family="CourierNewPSMT" font-size="36.0" fill="#CC1C00" transform="matrix(1.00, 0.00, -0.00, -1.00, 621.5, 500.0)">'</text><text xml:space="preserve" font-family="CourierNewPSMT" font-size="36.0" fill="#000000" transform="matrix(1.00, 0.00, -0.00, -1.00, 643.1, 500.0)">)</text><text xml:space="preserve" font-family="CourierNewPSMT" font-size="36.0" fill="#000000" transform="matrix(1.00, 0.00, -0.00, -1.00, 664.7, 500.0)">,</text><text xml:space="preserve" font-family="CourierNewPSMT" font-size="36.0" fill="#000000" transform="matrix(1.00, 0.00, -0.00, -1.00, 686.3, 500.0)"> </text><text xml:space="preserve" font-family="CourierNewPSMT" font-size="36.0" fill="#000000" transform="matrix(1.00, 0.00, -0.00, -1.00, 707.9, 500.0)">m</text><text xml:space="preserve" font-family="CourierNewPSMT" font-size="36.0" fill="#000000" transform="matrix(1.00, 0.00, -0.00, -1.00, 729.5, 500.0)">i</text><text xml:space="preserve" font-family="CourierNewPSMT" font-size="36.0" fill="#000000" transform="matrix(1.00, 0.00, -0.00, -1.00, 751.1, 500.0)">n</text><text xml:space="preserve" font-family="CourierNewPSMT" font-size="36.0" fill="#000000" transform="matrix(1.00, 0.00, -0.00, -1.00, 772.7, 500.0)">i</text><text xml:space="preserve" font-family="CourierNewPSMT" font-size="36.0" fill="#000000" transform="matrix(1.00, 0.00, -0.00, -1.00, 794.3, 500.0)">_</text><text xml:space="preserve" font-family="CourierNewPSMT" font-size="36.0" fill="#000000" transform="matrix(1.00, 0.00, -0.00, -1.00, 815.9, 500.0)">d</text><text xml:space="preserve" font-family="CourierNewPSMT" font-size="36.0" fill="#000000" transform="matrix(1.00, 0.00, -0.00, -1.00, 837.6, 500.0)">)</text><text xml:space="preserve" font-family="CourierNewPSMT" font-size="36.0" fill="#000000" transform="matrix(1.00, 0.00, -0.00, -1.00, 859.2, 500.0)"> </text><text xml:space="preserve" font-family="CourierNewPSMT" font-size="36.0" fill="#000000" transform="matrix(1.00, 0.00, -0.00, -1.00, 880.8, 500.0)">+</text><text xml:space="preserve" font-family="CourierNewPSMT" font-size="36.0" fill="#000000" transform="matrix(1.00, 0.00, -0.00, -1.00, 902.4, 500.0)"> </text><text xml:space="preserve" font-family="CourierNewPSMT" font-size="36.0" fill="#000000" transform="matrix(1.00, 0.00, -0.00, -1.00, 103.0, 459.0)"> </text><text xml:space="preserve" font-family="CourierNewPSMT" font-size="36.0" fill="#000000" transform="matrix(1.00, 0.00, -0.00, -1.00, 124.6, 459.0)"> </text><text xml:space="preserve" font-family="CourierNewPSMT" font-size="36.0" fill="#021993" transform="matrix(1.00, 0.00, -0.00, -1.00, 146.2, 459.0)">f</text><text xml:space="preserve" font-family="CourierNewPSMT" font-size="36.0" fill="#021993" transform="matrix(1.00, 0.00, -0.00, -1.00, 167.8, 459.0)">a</text><text xml:space="preserve" font-family="CourierNewPSMT" font-size="36.0" fill="#021993" transform="matrix(1.00, 0.00, -0.00, -1.00, 189.4, 459.0)">c</text><text xml:space="preserve" font-family="CourierNewPSMT" font-size="36.0" fill="#021993" transform="matrix(1.00, 0.00, -0.00, -1.00, 211.0, 459.0)">e</text><text xml:space="preserve" font-family="CourierNewPSMT" font-size="36.0" fill="#021993" transform="matrix(1.00, 0.00, -0.00, -1.00, 232.6, 459.0)">t</text><text xml:space="preserve" font-family="CourierNewPSMT" font-size="36.0" fill="#021993" transform="matrix(1.00, 0.00, -0.00, -1.00, 254.2, 459.0)">_</text><text xml:space="preserve" font-family="CourierNewPSMT" font-size="36.0" fill="#021993" transform="matrix(1.00, 0.00, -0.00, -1.00, 275.8, 459.0)">w</text><text xml:space="preserve" font-family="CourierNewPSMT" font-size="36.0" fill="#021993" transform="matrix(1.00, 0.00, -0.00, -1.00, 297.5, 459.0)">r</text><text xml:space="preserve" font-family="CourierNewPSMT" font-size="36.0" fill="#021993" transform="matrix(1.00, 0.00, -0.00, -1.00, 319.1, 459.0)">a</text><text xml:space="preserve" font-family="CourierNewPSMT" font-size="36.0" fill="#021993" transform="matrix(1.00, 0.00, -0.00, -1.00, 340.7, 459.0)">p</text><text xml:space="preserve" font-family="CourierNewPSMT" font-size="36.0" fill="#000000" transform="matrix(1.00, 0.00, -0.00, -1.00, 362.2, 459.0)">(</text><text xml:space="preserve" font-family="CourierNewPSMT" font-size="36.0" fill="#000000" transform="matrix(1.00, 0.00, -0.00, -1.00, 383.8, 459.0)">~</text><text xml:space="preserve" font-family="CourierNewPSMT" font-size="36.0" fill="#000000" transform="matrix(1.00, 0.00, -0.00, -1.00, 405.5, 459.0)">.</text><text xml:space="preserve" font-family="CourierNewPSMT" font-size="36.0" fill="#000000" transform="matrix(1.00, 0.00, -0.00, -1.00, 427.1, 459.0)">s</text><text xml:space="preserve" font-family="CourierNewPSMT" font-size="36.0" fill="#000000" transform="matrix(1.00, 0.00, -0.00, -1.00, 448.7, 459.0)">a</text><text xml:space="preserve" font-family="CourierNewPSMT" font-size="36.0" fill="#000000" transform="matrix(1.00, 0.00, -0.00, -1.00, 470.3, 459.0)">m</text><text xml:space="preserve" font-family="CourierNewPSMT" font-size="36.0" fill="#000000" transform="matrix(1.00, 0.00, -0.00, -1.00, 491.9, 459.0)">p</text><text xml:space="preserve" font-family="CourierNewPSMT" font-size="36.0" fill="#000000" transform="matrix(1.00, 0.00, -0.00, -1.00, 513.5, 459.0)">l</text><text xml:space="preserve" font-family="CourierNewPSMT" font-size="36.0" fill="#000000" transform="matrix(1.00, 0.00, -0.00, -1.00, 535.1, 459.0)">e</text><text xml:space="preserve" font-family="CourierNewPSMT" font-size="36.0" fill="#000000" transform="matrix(1.00, 0.00, -0.00, -1.00, 556.7, 459.0)">)</text><text xml:space="preserve" font-family="CourierNewPSMT" font-size="36.0" fill="#000000" transform="matrix(1.00, 0.00, -0.00, -1.00, 578.3, 459.0)"> </text><text xml:space="preserve" font-family="CourierNewPSMT" font-size="36.0" fill="#000000" transform="matrix(1.00, 0.00, -0.00, -1.00, 90.0, 395.0)">#</text><text xml:space="preserve" font-family="CourierNewPSMT" font-size="36.0" fill="#000000" transform="matrix(1.00, 0.00, -0.00, -1.00, 111.6, 395.0)">#</text><text xml:space="preserve" font-family="CourierNewPSMT" font-size="36.0" fill="#000000" transform="matrix(1.00, 0.00, -0.00, -1.00, 133.2, 395.0)"> </text><text xml:space="preserve" font-family="CourierNewPSMT" font-size="36.0" fill="#021993" transform="matrix(1.00, 0.00, -0.00, -1.00, 154.8, 395.0)">d</text><text xml:space="preserve" font-family="CourierNewPSMT" font-size="36.0" fill="#021993" transform="matrix(1.00, 0.00, -0.00, -1.00, 176.4, 395.0)">e</text><text xml:space="preserve" font-family="CourierNewPSMT" font-size="36.0" fill="#021993" transform="matrix(1.00, 0.00, -0.00, -1.00, 198.0, 395.0)">c</text><text xml:space="preserve" font-family="CourierNewPSMT" font-size="36.0" fill="#021993" transform="matrix(1.00, 0.00, -0.00, -1.00, 219.6, 395.0)">r</text><text xml:space="preserve" font-family="CourierNewPSMT" font-size="36.0" fill="#021993" transform="matrix(1.00, 0.00, -0.00, -1.00, 241.2, 395.0)">y</text><text xml:space="preserve" font-family="CourierNewPSMT" font-size="36.0" fill="#021993" transform="matrix(1.00, 0.00, -0.00, -1.00, 262.8, 395.0)">p</text><text xml:space="preserve" font-family="CourierNewPSMT" font-size="36.0" fill="#021993" transform="matrix(1.00, 0.00, -0.00, -1.00, 284.5, 395.0)">t</text><text xml:space="preserve" font-family="CourierNewPSMT" font-size="36.0" fill="#000000" transform="matrix(1.00, 0.00, -0.00, -1.00, 306.0, 395.0)">(</text><text xml:space="preserve" font-family="CourierNewPSMT" font-size="36.0" fill="#CC1C00" transform="matrix(1.00, 0.00, -0.00, -1.00, 327.6, 395.0)">“</text><text xml:space="preserve" font-family="CourierNewPSMT" font-size="36.0" fill="#CC1C00" transform="matrix(1.00, 0.00, -0.00, -1.00, 349.2, 395.0)">O</text><text xml:space="preserve" font-family="CourierNewPSMT" font-size="36.0" fill="#CC1C00" transform="matrix(1.00, 0.00, -0.00, -1.00, 370.9, 395.0)">l</text><text xml:space="preserve" font-family="CourierNewPSMT" font-size="36.0" fill="#CC1C00" transform="matrix(1.00, 0.00, -0.00, -1.00, 392.5, 395.0)">C</text><text xml:space="preserve" font-family="CourierNewPSMT" font-size="36.0" fill="#CC1C00" transform="matrix(1.00, 0.00, -0.00, -1.00, 414.1, 395.0)">E</text><text xml:space="preserve" font-family="CourierNewPSMT" font-size="36.0" fill="#CC1C00" transform="matrix(1.00, 0.00, -0.00, -1.00, 435.7, 395.0)"> </text><text xml:space="preserve" font-family="CourierNewPSMT" font-size="36.0" fill="#CC1C00" transform="matrix(1.00, 0.00, -0.00, -1.00, 457.3, 395.0)">b</text><text xml:space="preserve" font-family="CourierNewPSMT" font-size="36.0" fill="#CC1C00" transform="matrix(1.00, 0.00, -0.00, -1.00, 478.9, 395.0)">Q</text><text xml:space="preserve" font-family="CourierNewPSMT" font-size="36.0" fill="#CC1C00" transform="matrix(1.00, 0.00, -0.00, -1.00, 500.5, 395.0)">T</text><text xml:space="preserve" font-family="CourierNewPSMT" font-size="36.0" fill="#CC1C00" transform="matrix(1.00, 0.00, -0.00, -1.00, 522.1, 395.0)">Q</text><text xml:space="preserve" font-family="CourierNewPSMT" font-size="36.0" fill="#CC1C00" transform="matrix(1.00, 0.00, -0.00, -1.00, 543.7, 395.0)"> </text><text xml:space="preserve" font-family="CourierNewPSMT" font-size="36.0" fill="#CC1C00" transform="matrix(1.00, 0.00, -0.00, -1.00, 565.3, 395.0)">A</text><text xml:space="preserve" font-family="CourierNewPSMT" font-size="36.0" fill="#CC1C00" transform="matrix(1.00, 0.00, -0.00, -1.00, 586.9, 395.0)">w</text><text xml:space="preserve" font-family="CourierNewPSMT" font-size="36.0" fill="#CC1C00" transform="matrix(1.00, 0.00, -0.00, -1.00, 608.5, 395.0)"> </text><text xml:space="preserve" font-family="CourierNewPSMT" font-size="36.0" fill="#CC1C00" transform="matrix(1.00, 0.00, -0.00, -1.00, 630.1, 395.0)">G</text><text xml:space="preserve" font-family="CourierNewPSMT" font-size="36.0" fill="#CC1C00" transform="matrix(1.00, 0.00, -0.00, -1.00, 651.7, 395.0)">W</text><text xml:space="preserve" font-family="CourierNewPSMT" font-size="36.0" fill="#CC1C00" transform="matrix(1.00, 0.00, -0.00, -1.00, 673.4, 395.0)">P</text><text xml:space="preserve" font-family="CourierNewPSMT" font-size="36.0" fill="#CC1C00" transform="matrix(1.00, 0.00, -0.00, -1.00, 695.0, 395.0)">A</text><text xml:space="preserve" font-family="CourierNewPSMT" font-size="36.0" fill="#CC1C00" transform="matrix(1.00, 0.00, -0.00, -1.00, 716.6, 395.0)">T</text><text xml:space="preserve" font-family="CourierNewPSMT" font-size="36.0" fill="#CC1C00" transform="matrix(1.00, 0.00, -0.00, -1.00, 738.2, 395.0)">A</text><text xml:space="preserve" font-family="CourierNewPSMT" font-size="36.0" fill="#CC1C00" transform="matrix(1.00, 0.00, -0.00, -1.00, 759.8, 395.0)">W</text><text xml:space="preserve" font-family="CourierNewPSMT" font-size="36.0" fill="#CC1C00" transform="matrix(1.00, 0.00, -0.00, -1.00, 781.4, 395.0)">w</text><text xml:space="preserve" font-family="CourierNewPSMT" font-size="36.0" fill="#CC1C00" transform="matrix(1.00, 0.00, -0.00, -1.00, 803.0, 395.0)"> </text><text xml:space="preserve" font-family="CourierNewPSMT" font-size="36.0" fill="#CC1C00" transform="matrix(1.00, 0.00, -0.00, -1.00, 824.6, 395.0)">q</text><text xml:space="preserve" font-family="CourierNewPSMT" font-size="36.0" fill="#CC1C00" transform="matrix(1.00, 0.00, -0.00, -1.00, 846.2, 395.0)">y</text><text xml:space="preserve" font-family="CourierNewPSMT" font-size="36.0" fill="#CC1C00" transform="matrix(1.00, 0.00, -0.00, -1.00, 867.8, 395.0)">"</text><text xml:space="preserve" font-family="CourierNewPSMT" font-size="36.0" fill="#000000" transform="matrix(1.00, 0.00, -0.00, -1.00, 889.3, 395.0)">)</text><text xml:space="preserve" font-family="CourierNewPSMT" font-size="36.0" fill="#000000" transform="matrix(1.00, 0.00, -0.00, -1.00, 910.9, 395.0)"> </text></g></svg>